<svg id="Capa_1" enable-background="new 0 0 512 512" height="512" viewBox="0 0 512 512" width="512" xmlns="http://www.w3.org/2000/svg" xmlns:xlink="http://www.w3.org/1999/xlink"><linearGradient id="SVGID_1_" gradientUnits="userSpaceOnUse" x1="301" x2="301" y1="361" y2="0"><stop offset="0" stop-color="#c3ffe8"/><stop offset=".9973" stop-color="#f0fff4"/></linearGradient><linearGradient id="SVGID_2_" gradientUnits="userSpaceOnUse" x1="226" x2="226" y1="512" y2="211"><stop offset="0" stop-color="#00b59c"/><stop offset="1" stop-color="#9cffac"/></linearGradient><g><g><g><path d="m151 75c0-5.876 6.354-15.071 10.648-19.435 5.816-5.861 5.803-15.328-.042-21.172-5.857-5.858-15.355-5.858-21.213 0-1.985 1.985-19.393 19.989-19.393 40.607 0 20.344 17.106 39.178 19.057 41.259.11.118.181.192.295.306 4.294 4.364 10.648 13.559 10.648 19.435s-6.354 15.071-10.606 19.393c-5.858 5.858-5.858 15.355 0 21.213 2.928 2.93 6.767 4.394 10.606 4.394s7.678-1.464 10.606-4.393c1.986-1.985 19.394-19.989 19.394-40.607 0-19.933-16.271-37.423-19.146-40.356-4.424-4.836-10.854-14.623-10.854-20.644zm85.648-10.565c-4.294-4.364-10.648-13.559-10.648-19.435s6.354-15.071 10.648-19.435c5.816-5.861 5.803-15.328-.042-21.172-5.857-5.858-15.355-5.858-21.213 0-1.985 1.985-19.393 19.989-19.393 40.607 0 19.933 16.271 37.423 19.146 40.356 4.424 4.836 10.854 14.623 10.854 20.644 0 5.876-6.354 15.071-10.606 19.393-5.858 5.858-5.858 15.355 0 21.213 2.928 2.93 6.767 4.394 10.606 4.394s7.678-1.464 10.606-4.393c1.986-1.985 19.394-19.989 19.394-40.607 0-20.344-17.106-39.178-19.057-41.259-.11-.118-.181-.192-.295-.306zm169.352 146.565h-15l-30 15c0 8.284 6.716 15 15 15h30c24.813 0 45 20.187 45 45s-20.187 45-45 45h-61.657c-8.284 0-15 6.716-15 15s6.716 15 15 15h61.657c41.355 0 75-33.645 75-75s-33.645-75-75-75zm-94.146-115.356c-4.424-4.836-10.854-14.623-10.854-20.644 0-5.876 6.354-15.071 10.648-19.435 5.816-5.861 5.803-15.328-.042-21.172-5.857-5.858-15.355-5.858-21.213 0-1.985 1.985-19.393 19.989-19.393 40.607 0 20.344 17.106 39.178 19.057 41.259.11.118.181.192.295.306 4.294 4.364 10.648 13.559 10.648 19.435s-6.354 15.071-10.606 19.393c-5.858 5.858-5.858 15.355 0 21.213 2.928 2.93 6.767 4.394 10.606 4.394s7.678-1.464 10.606-4.393c1.986-1.985 19.394-19.989 19.394-40.607 0-19.933-16.271-37.423-19.146-40.356z" fill="url(#SVGID_1_)"/></g></g><g><g><g><path d="m406 482h-360c-8.284 0-15 6.716-15 15s6.716 15 15 15h360c8.284 0 15-6.716 15-15s-6.716-15-15-15zm-272.415-83.552c10.742 9.096 17.415 23.863 17.415 38.552 0 8.284 6.716 15 15 15h120c8.284 0 15-6.73 15-15.014 0-14.675 6.673-29.442 17.415-38.538 50.841-43.054 72.585-105.287 72.585-172.448v-15h-315c-8.284 0-15 6.716-15 15 0 72.604 25.1 132.235 72.585 172.448z" fill="url(#SVGID_2_)"/></g></g></g></g></svg>